# AST/ASF file generated using VICON BodyLanguage
# -----------------------------------------------
:version 1.10
:name VICON
:units
  mass 1.0
  length 0.45
  angle deg
:documentation
   .ast/.asf automatically generated from VICON data using
   VICON BodyBuilder and BodyLanguage model FoxedUp or BRILLIANT.MOD
:root
   order TX TY TZ RX RY RZ
   axis XYZ
   position 0 0 0  
   orientation 0 0 0 
:bonedata
  begin
     id 1 
     name lhipjoint
     direction 0.692814 -0.645514 0.321437 
     length 2.38754 
     axis 0 0 0  XYZ
  end
  begin
     id 2 
     name lfemur
     direction 0.34202 -0.939693 0  
     length 6.41921  
     axis 0 0 20  XYZ
    dof rx ry rz
    limits (-160.0 20.0)
           (-70.0 70.0)
           (-60.0 70.0)
  end
  begin
     id 3 
     name ltibia
     direction 0.34202 -0.939693 0   
     length 6.98247   
     axis 0 0 20   XYZ
    dof rx
    limits (-10.0 170.0)
  end
  begin
     id 4 
     name lfoot
     direction 0.0947186 -0.260237 0.960888   
     length 1.83034   
     axis -90 7.62852e-016 20   XYZ
    dof rx rz
    limits (-45.0 90.0)
           (-70.0 20.0)
  end
  begin
     id 5 
     name ltoes
     direction 1.53538e-011 -4.21952e-011 1   
     length 0.920499   
     axis -90 7.62852e-016 20   XYZ
    dof rx
    limits (-90.0 20.0)
  end
  begin
     id 6 
     name rhipjoint
     direction -0.631686 -0.693949 0.345555   
     length 2.2209  
     axis 0 0 0  XYZ 
  end
  begin
     id 7 
     name rfemur
     direction -0.34202 -0.939693 0   
     length 6.49542   
     axis 0 0 -20   XYZ
    dof rx ry rz
    limits (-160.0 20.0)
           (-70.0 70.0)
           (-70.0 60.0)
  end
  begin
     id 8 
     name rtibia
     direction -0.34202 -0.939693 0   
     length 7.21712   
     axis 0 0 -20   XYZ
    dof rx
    limits (-10.0 170.0)
 end
 begin
     id 9 
     name rfoot
     direction -0.0825378 -0.226771 0.970444   
     length 1.89724  
     axis -90 -7.62852e-016 -20   XYZ
    dof rx rz
    limits (-45.0 90.0)
           (-20.0 70.0)
  end
  begin
     id 10 
     name rtoes
     direction -1.53515e-011 -4.22016e-011 1   
     length 0.955868   
     axis -90 -7.62852e-016 -20   XYZ
    dof rx
    limits (-90.0 20.0)
  end
  begin
     id 11 
     name lowerback
     direction -0.0104711 0.984802 -0.173368   
     length 1.84931   
     axis 0 0 0   XYZ
    dof rx ry rz
    limits (-20.0 45.0)
           (-30.0 30.0)
           (-30.0 30.0)
  end
  begin
     id 12 
     name upperback
     direction -0.00286433 0.999996 -0.000382853   
     length 1.85768   
     axis 0 0 0   XYZ
    dof rx ry rz
    limits (-20.0 45.0)
           (-30.0 30.0)
           (-30.0 30.0)
  end
  begin
     id 13 
     name thorax
     direction 0.00167534 0.996793 0.0800069   
     length 1.92   
     axis 0 0 0   XYZ
    dof rx ry rz
    limits (-20.0 45.0)
           (-30.0 30.0)
           (-30.0 30.0)
  end
  begin
     id 14 
     name lowerneck
     direction -0.0672491 0.995415 0.068018   
     length 1.58923   
     axis 0 0 0   XYZ
    dof rx ry rz
    limits (-20.0 45.0)
           (-30.0 30.0)
           (-30.0 30.0)
  end
  begin
     id 15 
     name upperneck
     direction 0.0958019 0.982476 -0.159884   
     length 1.60189   
     axis 0 0 0   XYZ
    dof rx ry rz
    limits (-20.0 45.0)
           (-30.0 30.0)
           (-30.0 30.0)
  end
  begin
     id 16
     name head
     direction 0.032989 0.997338 -0.0650226  
     length 1.61681  
     axis 0 0 0   XYZ
    dof rx ry rz
    limits (-20.0 45.0)
           (-30.0 30.0)
           (-30.0 30.0)
  end
  begin
     id 17 
     name lclavicle
     direction 0.954279 0.298875 -0.00496069  
     length 2.99449  
     axis 0 0 0   XYZ
    dof ry rz
    limits (-20.0 10.0)
           (0.0 20.0)
  end
  begin
     id 18 
     name lhumerus
     direction 1 -4.48985e-011 -4.2057e-027   
     length 4.79185   
     axis 180 -30 -90   XYZ
    dof rx ry rz
    limits (-60.0 90.0)
           (-90.0 90.0)
           (-90.0 90.0)
  end
  begin
     id 19
     name lradius
     direction 1 -4.48945e-011 1.15441e-028   
     length 2.65553   
     axis 180 -30 -90   XYZ
    dof rx
    limits (-10.0 170.0)
  end
  begin
     id 20
     name lwrist
     direction 1 -4.4899e-011 4.8894e-028   
     length 1.32777   
     axis -2.56392e-016 90 90   XYZ
    dof ry
    limits (-180.0 0.0)
 end
  begin
     id 21 
     name lhand
     direction 1 -4.48908e-011 9.7788e-028   
     length 0.743904   
     axis -6.23971e-016 90 90   XYZ
    dof rx rz
    limits (-90.0 90.0)
           (-45.0 45.0)
  end
  begin
     id 22 
     name lfingers
     direction 1 -4.49068e-011 1.95576e-027   
     length 0.599754   
     axis -1.24794e-015 90 90   XYZ
    dof rx
    limits (0.0 90.0)
  end
  begin
     id 23
     name lthumb
     direction 0.707107 -6.34883e-011 0.707107   
     length 0.861131   
     axis -90 45 2.85299e-015   XYZ
    dof rx rz
    limits (-45.0 45.0)
           (-45.0 45.0)
  end
  begin
     id 24 
     name rclavicle
     direction -0.957921 0.286916 0.00811568   
     length 3.06817  
     axis 0 0 0   XYZ 
    dof ry rz
    limits (-10.0 20.0)
           (-20.0 0.0)
  end
  begin
     id 25 
     name rhumerus
     direction -1 -4.48971e-011 -3.07942e-027  
     length 4.77254   
     axis 180 30 90   XYZ
    dof rx ry rz
    limits (-90.0 60.0)
           (-90.0 90.0)
           (-90.0 90.0)
  end
  begin
     id 26 
     name rradius
     direction -1 -4.48957e-011 -9.6815e-028   
     length 2.75995   
     axis 180 30 90   XYZ
    dof rx
    limits (-10.0 170.0)
  end
  begin
     id 27 
     name rwrist
     direction -1 -4.48979e-011 4.8894e-028   
     length 1.37997   
     axis -2.56392e-016 -90 -90   XYZ
    dof ry
    limits (-180.0 0.0)
  end
  begin
     id 28
     name rhand
     direction -1 -4.48906e-011 9.7788e-028   
     length 0.701619   
     axis -6.23971e-016 -90 -90   XYZ
    dof rx rz
    limits (-90.0 90.0)
           (-45.0 45.0)
  end
  begin
     id 29
     name rfingers
     direction -1 -4.49018e-011 1.95576e-027   
     length 0.565663   
     axis -1.24794e-015 -90 -90   XYZ
    dof rx
    limits (0.0 90.0)
  end
  begin
     id 30
     name rthumb
     direction -0.707107 -6.34881e-011 0.707107   
     length 0.812183   
     axis -90 -45 -2.85299e-015   XYZ
    dof rx rz
    limits (-45.0 45.0)
           (-45.0 45.0)
  end
:hierarchy
  begin
    root lhipjoint rhipjoint lowerback
    lhipjoint lfemur
    lfemur ltibia
    ltibia lfoot
    lfoot ltoes
    rhipjoint rfemur
    rfemur rtibia
    rtibia rfoot
    rfoot rtoes
    lowerback upperback
    upperback thorax
    thorax lowerneck lclavicle rclavicle
    lowerneck upperneck
    upperneck head
    lclavicle lhumerus
    lhumerus lradius
    lradius lwrist
    lwrist lhand lthumb
    lhand lfingers
    rclavicle rhumerus
    rhumerus rradius
    rradius rwrist
    rwrist rhand rthumb
    rhand rfingers
  end

#!OML:ASF F:\VICON\USERDATA\INSTALL\rory3\rory3.ASF
:FULLY-SPECIFIED
:DEGREES
917
root -0.392583 15.6084 -1.12329 9.05629 37.4696 -18.2878
lowerback 24.4851 -3.03089 -5.10626
upperback 5.93883 -4.89395 1.06426
thorax -6.46746 -2.24159 5.49166
lowerneck 1.75174 -17.4391 -19.5159
upperneck 5.21997 -25.6706 24.1324
head 7.13611 -12.7309 8.17507
rclavicle -3.18055e-014 7.31528e-014
rhumerus -69.9762 19.4715 -103.31
rradius 64.5258
rwrist -55.5547
rhand -7.52152 8.98722
rfingers 7.12502
rthumb 18.3692 -20.1655
lclavicle -3.18055e-014 7.31528e-014
lhumerus 28.2297 -25.4627 5.76472
lradius 82.4143
lwrist 50.7431
lhand 11.3355 17.1586
lfingers 7.12502
lthumb 36.3919 43.3779
rfemur -30.4824 -10.4319 38.7434
rtibia 32.089
rfoot -18.0002 -20.7954
rtoes -4.5974
lfemur -51.7958 -14.1991 10.588
ltibia 40.6728
lfoot -2.92088 -16.6677
ltoes 0.855637
918
root -0.381918 15.6149 -1.12278 9.5551 37.4603 -17.6649
lowerback 24.4904 -2.98296 -5.6096
upperback 5.89028 -4.9655 0.957789
thorax -6.47828 -2.26856 5.68288
lowerneck 1.75958 -17.4316 -19.6829
upperneck 5.20067 -25.6647 24.1738
head 7.15704 -12.7311 8.21076
rclavicle -1.06549e-013 7.31528e-014
rhumerus -68.6175 19.622 -103.223
rradius 63.0911
rwrist -55.4716
rhand -7.64086 8.96121
rfingers 7.12502
rthumb 18.2544 -20.2023
lclavicle -1.06549e-013 7.31528e-014
lhumerus 28.3911 -25.517 5.81335
lradius 82.0794
lwrist 50.7668
lhand 11.3773 17.2434
lfingers 7.12502
lthumb 36.4315 43.4527
rfemur -30.7063 -10.47 38.2007
rtibia 32.2367
rfoot -18.0886 -20.795
rtoes -4.72577
lfemur -51.8301 -14.3955 10.106
ltibia 40.4916
lfoot -2.86717 -16.4898
ltoes 1.00371
919
root -0.373112 15.6189 -1.12274 9.82123 37.4125 -17.3509
lowerback 24.5114 -2.87488 -5.83788
upperback 5.87484 -4.89152 0.859519
thorax -6.50416 -2.22821 5.68679
lowerneck 1.9298 -17.4717 -19.6872
upperneck 5.01089 -25.7304 24.2942
head 7.1038 -12.7804 8.25302
rclavicle -5.725e-014 3.18055e-014
rhumerus -67.3945 19.5572 -103.17
rradius 61.9597
rwrist -55.3894
rhand -7.71119 8.94437
rfingers 7.12502
rthumb 18.1867 -20.2254
lclavicle -5.725e-014 3.18055e-014
lhumerus 29.0793 -25.5639 5.58116
lradius 81.6078
lwrist 50.9253
lhand 11.4765 17.4951
lfingers 7.12502
lthumb 36.5254 43.6807
rfemur -30.8553 -10.4434 37.9056
rtibia 32.4063
rfoot -18.242 -20.7407
rtoes -4.40178
lfemur -51.7855 -14.4511 9.84116
ltibia 40.3327
lfoot -2.84209 -16.3784
ltoes 0.938122
920
root -0.364458 15.6217 -1.12155 10.0122 37.3634 -17.093
lowerback 24.5727 -2.76438 -6.03568
upperback 5.86396 -4.80741 0.78117
thorax -6.54778 -2.18242 5.6953
lowerneck 2.02588 -17.5392 -19.5771
upperneck 4.84941 -25.8067 24.2792
head 7.03633 -12.8284 8.22802
rclavicle 3.02153e-014 -1.90833e-014
rhumerus -66.496 19.6566 -103.251
rradius 61.2742
rwrist -55.4037
rhand -7.86247 8.83397
rfingers 7.12502
rthumb 18.0412 -20.3493
lclavicle 3.02153e-014 -1.90833e-014
lhumerus 29.2618 -25.6893 5.46443
lradius 81.6105
lwrist 50.9996
lhand 11.4172 17.5942
lfingers 7.12502
lthumb 36.4692 43.7941
rfemur -30.9367 -10.4574 37.6594
rtibia 32.5452
rfoot -18.2881 -20.7122
rtoes -4.38147
lfemur -51.7292 -14.5112 9.60622
ltibia 40.2283
lfoot -2.87098 -16.3237
ltoes 0.871849
921
root -0.360153 15.6205 -1.12204 10.0903 37.3251 -16.9101
lowerback 24.761 -2.6678 -6.22582
upperback 5.83317 -4.74369 0.755173
thorax -6.67107 -2.14188 5.77322
lowerneck 2.07535 -17.5918 -19.6076
upperneck 4.7929 -25.8789 24.2888
head 7.03223 -12.8688 8.22362
rclavicle 1.03368e-013 -5.725e-014
rhumerus -66.0621 19.9497 -103.415
rradius 61.0325
rwrist -55.2128
rhand -8.24232 8.71392
rfingers 7.12502
rthumb 17.6757 -20.5027
lclavicle 1.03368e-013 -5.725e-014
lhumerus 28.8901 -25.9081 5.51929
lradius 81.9659
lwrist 51.0197
lhand 11.2995 17.4239
lfingers 7.12502
lthumb 36.3578 43.6517
rfemur -30.962 -10.4651 37.4778
rtibia 32.6605
rfoot -18.3181 -20.7333
rtoes -4.42353
lfemur -51.663 -14.5468 9.41672
ltibia 40.1829
lfoot -2.82897 -16.3045
ltoes 0.993297
